<?xml version="1.0" standalone="no"?>
<!DOCTYPE svg PUBLIC "-//W3C//DTD SVG 20010904//EN"
 "http://www.w3.org/TR/2001/REC-SVG-20010904/DTD/svg10.dtd">
<svg version="1.0" xmlns="http://www.w3.org/2000/svg"
 width="574.000000pt" height="574.000000pt" viewBox="0 0 574.000000 574.000000"
 preserveAspectRatio="xMidYMid meet">
<metadata>
Created by potrace 1.14, written by Peter Selinger 2001-2017
</metadata>
<g transform="translate(0.000000,574.000000) scale(0.100000,-0.100000)"
fill="#000000" stroke="none">
<path d="M2820 5725 c-7 -8 -16 -15 -20 -15 -5 0 -90 -47 -189 -105 -99 -58
-185 -105 -190 -105 -5 0 -11 -3 -13 -8 -3 -7 -145 -90 -298 -175 -30 -17 -57
-33 -60 -36 -3 -3 -23 -16 -45 -27 -97 -52 -331 -189 -337 -198 -4 -6 -8 -7
-8 -3 0 5 -12 0 -27 -11 -16 -10 -71 -43 -123 -72 -52 -30 -98 -58 -101 -63
-3 -5 -8 -7 -10 -6 -4 3 -100 -50 -109 -61 -3 -3 -21 -13 -40 -22 -48 -24
-134 -72 -140 -79 -3 -3 -12 -9 -20 -12 -8 -4 -31 -17 -50 -28 -19 -12 -53
-31 -75 -42 -22 -12 -42 -25 -45 -28 -3 -4 -25 -16 -48 -28 -24 -12 -73 -40
-108 -62 -36 -22 -70 -40 -76 -42 -7 -1 -20 -9 -29 -17 -10 -8 -35 -24 -56
-35 -101 -53 -204 -118 -218 -138 -13 -19 -15 -184 -15 -1440 l0 -1418 23 -24
c19 -20 88 -62 252 -155 17 -9 53 -31 81 -48 28 -18 56 -32 63 -32 6 0 11 -3
11 -7 0 -5 10 -13 23 -18 31 -15 111 -59 117 -65 3 -3 16 -11 29 -18 13 -8 40
-23 60 -35 20 -11 52 -30 73 -41 20 -12 61 -36 92 -54 31 -17 60 -32 66 -32 5
0 10 -4 10 -8 0 -4 24 -20 53 -36 107 -57 132 -71 135 -78 2 -5 7 -8 12 -8 5
0 53 -26 107 -58 54 -32 105 -61 113 -65 8 -4 33 -18 55 -32 22 -14 54 -32 70
-41 17 -8 59 -33 95 -54 36 -22 81 -47 100 -57 19 -9 37 -20 40 -23 3 -3 73
-44 155 -92 83 -47 166 -95 185 -107 19 -11 42 -24 50 -28 8 -4 43 -24 78 -45
34 -21 64 -38 66 -38 1 0 61 -34 132 -76 147 -86 169 -89 250 -33 24 16 44 27
44 24 0 -3 6 -1 13 5 6 6 113 69 237 140 124 71 230 133 235 138 6 4 25 15 43
22 17 8 32 18 32 22 0 5 3 7 8 6 4 -1 18 4 32 13 80 49 131 78 149 84 12 3 21
11 21 16 0 5 5 9 10 9 6 0 27 11 48 23 20 13 58 35 83 49 25 14 178 102 340
196 162 93 308 177 324 186 17 9 46 26 65 37 148 88 291 169 300 169 5 0 10 5
10 10 0 6 4 10 9 10 8 0 178 96 231 130 8 6 35 20 58 31 24 12 59 37 78 54
l34 32 0 1423 0 1422 -32 30 c-27 24 -191 127 -208 130 -3 0 -14 6 -25 13 -74
46 -338 195 -346 195 -5 0 -9 4 -9 9 0 5 -8 11 -17 14 -10 3 -40 20 -68 36
-27 17 -57 34 -65 38 -13 6 -282 160 -320 183 -35 21 -580 335 -630 363 -30
17 -57 33 -60 36 -3 3 -30 19 -60 35 -30 16 -66 37 -80 46 -50 33 -259 150
-270 150 -5 0 -10 5 -10 10 0 6 -7 10 -15 10 -8 0 -15 3 -15 8 0 4 -17 15 -37
25 -21 9 -47 23 -58 30 -45 28 -100 61 -105 63 -3 0 -18 6 -33 12 -39 16 -72
15 -87 -3z"/>
</g>
</svg>
