<?xml version="1.0" standalone="no"?>
<!DOCTYPE svg PUBLIC "-//W3C//DTD SVG 20010904//EN"
 "http://www.w3.org/TR/2001/REC-SVG-20010904/DTD/svg10.dtd">
<svg version="1.0" xmlns="http://www.w3.org/2000/svg"
 width="1024.000000pt" height="1024.000000pt" viewBox="0 0 1024.000000 1024.000000"
 preserveAspectRatio="xMidYMid meet">
<metadata>
Created by potrace 1.14, written by Peter Selinger 2001-2017
</metadata>
<g transform="translate(0.000000,1024.000000) scale(0.100000,-0.100000)"
fill="#000000" stroke="none">
<path d="M4304 9733 c-27 -14 -57 -35 -67 -47 -10 -11 -16 -15 -12 -9 4 9 1
11 -9 7 -9 -3 -16 -9 -16 -13 0 -4 -6 -8 -12 -8 -21 0 -138 -74 -138 -87 0 -6
-5 -4 -10 4 -5 8 -10 10 -10 5 0 -6 -20 -21 -45 -35 -25 -14 -45 -28 -45 -32
0 -5 -3 -7 -7 -6 -13 4 -103 -43 -103 -53 0 -5 -6 -8 -12 -7 -7 2 -12 -3 -10
-10 1 -8 -2 -11 -7 -7 -13 8 -82 -30 -73 -40 4 -5 -1 -5 -12 -1 -13 4 -17 2
-13 -8 4 -9 0 -12 -11 -9 -10 2 -27 -5 -39 -17 -13 -11 -25 -20 -28 -20 -3 0
-9 0 -13 0 -5 0 -19 -10 -32 -22 -14 -13 -26 -22 -27 -20 -2 1 -19 -4 -39 -13
-22 -9 -33 -19 -28 -26 4 -7 2 -10 -7 -7 -8 3 -22 1 -33 -4 -15 -8 -16 -12 -5
-20 11 -8 10 -9 -4 -4 -19 6 -67 -12 -67 -26 0 -5 -4 -7 -9 -4 -5 3 -14 -1
-21 -9 -7 -8 -17 -12 -23 -8 -6 4 -8 0 -4 -10 4 -12 2 -14 -10 -10 -8 3 -18 2
-22 -3 -3 -5 -24 -18 -46 -29 -22 -11 -42 -22 -45 -25 -3 -4 -21 -13 -40 -22
-19 -9 -52 -28 -72 -41 -20 -14 -45 -28 -57 -32 -12 -3 -21 -11 -21 -16 0 -5
-3 -8 -7 -7 -14 3 -63 -25 -63 -35 0 -6 -3 -7 -6 -4 -4 4 -19 -2 -33 -12 -14
-10 -51 -31 -81 -47 -30 -16 -56 -32 -58 -36 -2 -5 -9 -8 -16 -8 -6 0 -28 -11
-47 -25 -20 -13 -39 -21 -43 -18 -3 4 -6 2 -6 -4 0 -6 -13 -16 -30 -23 -16 -7
-30 -16 -30 -21 0 -5 -3 -8 -7 -8 -22 4 -33 -3 -34 -18 0 -11 -3 -13 -6 -5 -3
9 -12 7 -33 -8 -15 -11 -33 -20 -38 -20 -6 0 -17 -6 -24 -14 -8 -7 -28 -21
-45 -29 -26 -14 -31 -22 -31 -57 0 -22 -4 -44 -7 -50 -3 -5 -1 -10 5 -10 6 0
8 -5 4 -12 -11 -17 -12 -48 -3 -48 5 0 6 -7 3 -15 -10 -26 -10 -245 0 -245 6
0 5 -5 -2 -12 -8 -8 -8 -17 -1 -31 6 -11 7 -17 2 -14 -7 4 -9 -107 -3 -138 1
-5 2 -14 0 -20 -6 -30 -4 -105 3 -105 5 0 5 -6 0 -12 -9 -17 -10 -47 -1 -75 4
-13 3 -23 -2 -23 -9 0 -6 -32 5 -50 3 -6 1 -10 -6 -10 -10 0 -10 -3 -2 -11 7
-7 8 -21 5 -33 -6 -18 -8 -231 -2 -246 5 -15 6 -50 1 -50 -5 0 -6 -237 -1
-250 1 -3 1 -9 0 -15 -6 -25 -4 -145 2 -145 4 0 3 -11 -2 -25 -6 -17 -6 -25 1
-25 6 0 7 -5 3 -11 -10 -16 -11 -339 -1 -339 5 0 5 -5 1 -12 -10 -16 -11 -148
-1 -148 5 0 5 -5 1 -12 -10 -16 -11 -339 -1 -345 4 -2 5 -9 1 -14 -9 -15 -11
-79 -2 -79 3 0 4 -12 0 -27 -4 -16 -7 -111 -6 -213 1 -175 -1 -185 -20 -202
-12 -10 -25 -17 -29 -18 -4 0 -71 -36 -149 -80 -77 -44 -145 -80 -149 -80 -5
0 -9 -4 -9 -10 0 -5 -7 -10 -15 -10 -8 0 -15 -4 -15 -10 0 -5 -3 -9 -7 -9 -13
2 -73 -25 -73 -33 0 -4 -21 -16 -47 -28 -26 -11 -50 -24 -53 -28 -3 -4 -28
-18 -57 -32 -28 -14 -49 -28 -46 -32 2 -5 -5 -8 -16 -8 -11 0 -25 -8 -30 -17
-6 -10 -11 -14 -11 -10 0 9 -60 -24 -60 -33 0 -3 -10 -6 -22 -7 -11 -1 -24 -6
-27 -10 -11 -14 -74 -56 -66 -44 5 9 1 9 -14 -1 -12 -7 -21 -16 -21 -20 0 -5
-6 -8 -14 -8 -8 0 -21 -7 -30 -15 -8 -9 -19 -16 -23 -17 -21 -2 -32 -11 -26
-21 3 -6 1 -7 -5 -3 -15 9 -55 -18 -44 -29 4 -5 2 -5 -5 -1 -13 7 -73 -19 -73
-33 0 -4 -6 -8 -12 -8 -22 0 -188 -100 -180 -108 4 -5 -1 -5 -12 -1 -14 5 -17
3 -12 -11 6 -14 5 -15 -5 -6 -9 9 -18 8 -38 -6 -14 -10 -34 -21 -45 -24 -12
-5 -16 -13 -11 -25 4 -13 3 -14 -5 -6 -12 12 -60 -3 -60 -18 0 -5 -5 -8 -11
-8 -6 0 -24 -9 -40 -21 -16 -11 -29 -17 -29 -14 0 3 -12 -2 -27 -13 -16 -10
-35 -22 -43 -25 -8 -4 -33 -18 -55 -32 -22 -14 -47 -28 -55 -32 -8 -4 -17 -9
-20 -12 -3 -3 -26 -17 -52 -30 -26 -13 -45 -28 -41 -34 3 -6 1 -7 -5 -3 -6 4
-23 -1 -38 -10 -21 -14 -25 -24 -22 -50 2 -18 0 -30 -4 -28 -4 3 -8 1 -8 -5 0
-5 5 -13 10 -16 6 -4 7 -13 2 -23 -11 -22 -9 -253 3 -271 5 -10 4 -12 -3 -7
-7 4 -12 3 -12 -3 0 -5 5 -13 10 -16 6 -4 7 -12 3 -18 -10 -17 -11 -129 0
-151 6 -12 6 -16 -1 -12 -6 4 -10 -2 -9 -14 1 -11 5 -20 10 -20 5 0 5 -6 -2
-13 -8 -10 -7 -17 2 -27 9 -10 9 -11 0 -6 -15 8 -18 -10 -3 -19 7 -4 7 -13 0
-24 -6 -12 -5 -22 3 -31 9 -10 9 -11 -1 -6 -14 8 -17 -10 -2 -19 7 -4 7 -13 0
-24 -6 -12 -5 -22 3 -31 7 -8 7 -10 1 -7 -7 4 -11 -4 -10 -23 1 -17 5 -30 11
-30 5 0 4 -5 -2 -11 -8 -8 -8 -20 -2 -36 5 -13 5 -22 1 -19 -12 7 -9 -88 3
-96 6 -5 6 -8 -1 -8 -12 0 -11 -111 1 -131 5 -8 4 -10 -3 -5 -7 4 -12 3 -12
-3 0 -5 5 -13 10 -16 6 -4 7 -13 2 -23 -11 -21 -8 -174 3 -192 5 -9 4 -11 -3
-6 -7 4 -12 3 -12 -3 0 -5 5 -13 10 -16 7 -4 7 -12 0 -24 -5 -10 -7 -21 -4
-24 9 -9 12 -57 3 -51 -5 3 -9 1 -9 -5 0 -5 5 -13 10 -16 7 -4 7 -13 0 -24 -6
-12 -5 -22 3 -31 7 -7 7 -10 1 -7 -13 7 -12 -53 1 -73 5 -9 4 -11 -3 -6 -7 4
-12 3 -12 -3 0 -5 5 -13 10 -16 7 -4 6 -13 -1 -27 -9 -16 -8 -23 2 -29 8 -5
10 -9 4 -9 -6 0 -10 -45 -10 -114 0 -66 4 -112 9 -109 5 4 5 0 0 -8 -11 -19
-12 -319 0 -312 5 4 6 0 1 -7 -11 -18 -13 -108 -4 -143 5 -16 4 -25 -2 -22 -5
4 -9 2 -9 -4 0 -5 5 -13 10 -16 7 -4 6 -13 -1 -27 -9 -16 -8 -23 2 -29 8 -5 9
-9 3 -9 -11 0 -10 -51 1 -71 5 -8 4 -10 -3 -5 -7 4 -12 3 -12 -3 0 -5 5 -13
10 -16 7 -4 7 -13 0 -24 -6 -12 -5 -22 3 -31 7 -7 7 -10 1 -7 -12 7 -11 -94 2
-114 4 -7 3 -10 -2 -6 -13 8 -12 -86 1 -95 7 -5 6 -8 -1 -8 -7 0 -9 -21 -7
-58 2 -31 4 -65 4 -74 0 -21 27 -37 63 -40 15 -1 26 -6 26 -11 0 -4 4 -6 9 -2
5 3 12 1 16 -4 3 -5 14 -8 25 -6 11 2 20 0 20 -6 0 -5 9 -9 21 -9 11 0 28 -4
38 -9 10 -6 28 -12 42 -14 13 -2 31 -7 39 -10 35 -14 120 -35 120 -30 0 3 6 1
12 -4 15 -11 100 -36 109 -31 3 2 13 -3 22 -11 10 -7 17 -11 17 -7 0 4 12 0
27 -7 16 -8 36 -13 46 -12 9 2 17 0 17 -5 0 -5 11 -7 25 -6 13 2 22 -1 19 -5
-3 -5 3 -10 13 -11 28 -2 36 -4 66 -16 16 -7 34 -12 40 -12 7 -1 29 -7 49 -14
21 -8 35 -10 33 -6 -3 5 12 0 32 -10 28 -13 41 -15 51 -7 10 8 12 7 10 -4 -2
-8 5 -14 14 -14 9 0 20 -4 24 -8 4 -4 18 -7 31 -7 13 0 31 -4 41 -9 9 -6 45
-19 80 -29 56 -17 62 -18 57 -3 -4 11 0 9 14 -6 11 -11 35 -24 53 -28 30 -6
80 -20 118 -33 8 -3 24 -7 34 -9 11 -2 40 -10 64 -19 25 -8 52 -12 59 -10 9 4
11 1 7 -6 -5 -7 1 -9 19 -6 15 3 24 1 21 -3 -3 -5 8 -11 23 -15 15 -3 53 -14
83 -24 30 -9 57 -13 58 -9 2 5 8 9 13 9 6 0 8 -4 4 -9 -3 -5 3 -12 14 -16 17
-5 30 -8 76 -18 6 -2 15 -5 20 -9 8 -5 39 -13 90 -24 32 -7 41 -10 46 -17 3
-4 24 -8 46 -10 23 -1 39 -4 37 -6 -2 -3 13 -10 33 -17 48 -15 151 -44 160
-45 5 0 13 -4 18 -8 6 -4 19 -7 30 -7 11 1 22 -2 25 -5 3 -4 16 -9 30 -10 14
-2 27 -6 30 -9 11 -11 141 -40 152 -34 6 4 8 3 5 -2 -3 -6 7 -15 24 -21 18 -7
27 -8 23 -1 -4 5 4 3 17 -5 13 -8 32 -13 42 -12 9 2 17 -1 17 -5 0 -11 54 11
79 31 10 8 47 30 84 49 37 19 67 39 67 44 0 5 3 7 6 3 3 -3 23 4 43 17 20 12
44 26 55 29 16 6 16 10 5 25 -13 15 -12 16 3 4 20 -16 63 1 52 20 -4 6 -3 8 4
4 10 -6 62 12 72 25 3 4 22 15 42 26 21 11 34 23 31 27 -4 4 0 4 10 0 9 -3 17
-1 17 4 0 6 9 14 21 17 11 4 57 28 102 54 45 26 89 50 97 54 8 4 38 21 65 37
28 17 60 35 73 40 12 5 22 14 22 20 0 5 3 9 8 8 14 -4 82 34 76 43 -3 5 1 6 9
3 8 -3 20 2 27 10 7 9 16 13 21 10 5 -3 9 0 9 5 0 6 6 11 14 11 7 0 19 7 26
15 7 8 16 13 20 10 4 -3 13 2 20 10 7 8 19 15 27 15 8 0 11 4 8 10 -4 6 1 7
11 3 14 -5 16 -3 11 11 -4 10 -3 15 3 11 12 -7 70 16 70 28 0 5 5 5 10 2 6 -3
10 -1 10 4 0 6 6 11 14 11 8 0 21 6 28 14 8 7 24 17 36 20 12 4 22 12 22 17 0
5 9 9 20 9 11 0 20 5 20 10 0 6 7 10 15 10 8 0 23 8 33 17 10 10 25 19 33 21
7 2 17 8 20 14 3 5 9 8 12 6 9 -4 87 45 87 54 0 4 8 4 17 1 12 -5 15 -2 10 10
-4 11 -2 14 7 11 7 -3 37 9 65 25 29 17 56 31 61 31 5 0 12 5 16 12 5 7 2 8
-7 3 -8 -5 -11 -4 -6 1 5 5 14 9 20 9 24 0 116 50 112 61 -2 7 4 10 17 6 15
-4 19 -2 14 7 -6 8 -1 10 18 5 16 -4 33 -1 44 7 15 13 16 12 3 -4 -14 -17 -12
-18 27 -20 9 -1 19 -5 22 -9 3 -3 17 -9 30 -11 14 -2 32 -6 40 -9 64 -23 132
-38 142 -32 6 4 8 3 4 -4 -6 -10 7 -14 73 -27 12 -2 29 -9 35 -15 7 -5 16 -7
19 -4 3 3 12 2 19 -2 7 -5 18 -10 23 -11 6 -1 28 -7 49 -12 22 -5 44 -7 49 -4
6 3 7 1 3 -5 -4 -7 -1 -13 6 -13 45 -5 56 -7 76 -18 12 -6 22 -9 22 -5 0 3 7
1 15 -6 8 -7 15 -9 15 -6 0 4 8 2 18 -3 11 -6 32 -13 48 -16 16 -3 34 -7 41
-9 7 -1 16 -5 19 -9 4 -4 13 -2 21 5 11 9 13 8 11 -3 -2 -8 4 -14 12 -15 8 0
22 -4 30 -7 8 -4 24 -8 35 -10 11 -2 27 -7 35 -10 40 -16 119 -35 124 -30 3 4
6 1 6 -5 0 -7 8 -12 19 -12 10 0 34 -7 53 -15 27 -11 38 -11 47 -2 7 7 11 8 9
2 -4 -12 -5 -12 78 -35 37 -11 71 -17 77 -13 6 3 7 1 3 -5 -4 -7 -1 -13 8 -13
9 -1 19 -2 24 -4 4 -1 21 -5 37 -9 17 -4 40 -12 52 -18 12 -6 29 -8 38 -4 9 3
13 2 10 -4 -3 -6 3 -10 15 -10 13 0 19 4 14 12 -4 7 -3 8 5 4 6 -4 9 -12 6
-17 -6 -8 11 -13 43 -12 6 1 12 -2 12 -6 0 -6 75 -29 114 -35 9 -1 19 -5 22
-9 4 -4 18 -7 30 -7 13 0 25 -4 28 -9 3 -5 19 -8 35 -7 17 1 28 -1 25 -5 -8
-13 28 -19 43 -7 11 9 13 9 11 -1 -2 -8 15 -18 40 -26 23 -7 42 -11 42 -8 0 3
6 1 13 -5 6 -5 26 -12 43 -15 17 -3 40 -9 50 -15 11 -5 29 -8 41 -7 12 1 20
-2 17 -7 -3 -4 1 -9 8 -9 40 -4 57 -8 91 -23 23 -10 36 -12 32 -5 -4 6 3 4 16
-4 13 -8 40 -19 59 -23 19 -4 37 -8 40 -9 3 -1 52 -16 110 -34 115 -37 152
-40 176 -17 8 9 20 16 26 16 5 0 22 9 38 20 15 11 30 17 34 13 3 -3 6 -2 6 4
0 6 13 16 30 23 16 7 27 16 24 21 -3 5 2 6 10 3 9 -3 16 -1 16 5 0 6 6 11 14
11 8 0 21 6 28 13 7 6 19 13 26 15 26 5 62 34 55 45 -3 6 -1 7 6 3 12 -8 90
27 119 54 9 9 19 16 22 16 17 1 80 38 80 47 0 6 3 7 7 4 3 -4 17 0 31 9 13 9
49 30 81 46 31 17 63 37 72 44 8 8 21 14 27 14 6 0 17 6 24 13 7 6 36 23 63
37 28 14 52 27 55 30 3 3 17 11 32 19 15 8 25 19 21 24 -3 6 -1 7 5 3 13 -8
62 13 62 27 0 6 3 8 6 4 3 -3 24 5 45 19 21 13 43 24 49 24 5 0 10 5 10 10 0
6 7 10 15 10 8 0 15 5 15 12 0 6 3 8 6 5 4 -4 19 2 34 13 16 11 33 20 38 20 6
0 17 6 24 12 7 7 43 29 80 48 37 19 68 39 68 43 0 5 5 5 10 2 6 -3 10 -3 10 2
0 4 23 19 50 32 28 14 50 29 50 33 0 4 3 7 8 6 4 -1 23 7 44 17 25 12 35 23
31 34 -4 12 -3 13 5 3 8 -11 17 -9 50 12 23 14 46 26 52 26 5 0 10 4 10 8 0 4
15 15 33 23 76 37 137 73 137 81 0 5 4 7 10 3 12 -8 53 33 45 45 -4 6 -2 10 4
10 13 0 9 53 -4 62 -6 5 -5 8 4 8 10 0 11 3 3 13 -7 8 -7 18 -2 27 5 9 5 19
-1 26 -7 8 -6 14 1 19 8 5 8 10 0 20 -8 9 -8 15 0 20 7 4 7 12 0 26 -6 10 -7
19 -2 19 10 0 9 211 -2 228 -4 7 -3 12 2 12 10 0 10 80 -1 97 -4 6 -3 14 3 18
7 4 7 12 0 26 -6 10 -7 19 -2 19 11 0 9 80 -3 99 -5 9 -4 12 2 8 12 -7 10 103
-1 122 -4 6 -3 11 1 11 11 0 10 211 -1 228 -4 7 -3 12 2 12 10 0 10 80 -1 97
-4 6 -3 14 3 18 7 4 7 12 0 26 -6 10 -7 19 -2 19 11 0 9 80 -3 99 -5 9 -4 12
2 8 12 -7 10 103 -1 122 -4 6 -3 11 1 11 11 0 10 211 -1 228 -4 6 -3 12 2 12
10 0 8 132 -2 149 -4 6 -3 11 1 11 11 0 10 211 -1 228 -4 7 -3 12 1 12 11 0
10 211 -1 228 -4 7 -3 12 2 12 10 0 8 132 -2 149 -4 6 -3 11 1 11 11 0 10 211
-1 228 -4 7 -3 12 1 12 11 0 10 121 -2 139 -5 9 -4 12 3 7 11 -7 9 64 -2 82
-3 6 0 12 6 15 10 3 10 7 1 17 -6 7 -9 18 -7 25 3 7 -6 15 -23 20 -15 3 -29 6
-31 6 -1 -1 -15 5 -31 13 -19 10 -31 12 -38 5 -8 -8 -13 -7 -18 2 -6 8 -4 10
6 4 8 -5 11 -4 6 1 -5 5 -12 9 -15 10 -4 0 -27 6 -52 13 -40 12 -58 16 -95 24
-5 2 -15 6 -21 9 -6 4 -21 9 -35 12 -13 3 -38 9 -56 15 -17 5 -34 7 -37 3 -3
-3 -6 -1 -6 5 0 5 -6 10 -12 11 -17 1 -39 7 -60 17 -10 4 -25 5 -33 1 -8 -3
-15 -1 -15 5 0 6 -7 8 -16 5 -8 -3 -12 -2 -9 4 5 9 -23 15 -47 11 -5 0 -8 3
-8 7 0 4 -8 9 -17 10 -22 2 -43 7 -63 15 -46 17 -83 26 -90 22 -4 -3 -13 2
-20 11 -11 12 -15 12 -21 2 -7 -10 -9 -10 -9 0 0 6 -10 12 -23 12 -13 0 -27 3
-31 8 -4 4 -12 8 -17 8 -5 1 -11 3 -14 4 -3 1 -8 3 -12 4 -5 2 -28 8 -53 15
-25 7 -52 15 -60 16 -8 2 -16 4 -17 5 -3 3 -3 3 -53 14 -19 5 -40 12 -46 17
-6 5 -25 9 -42 11 -18 1 -32 5 -32 8 0 4 -6 7 -12 8 -29 4 -54 10 -70 17 -10
4 -29 8 -42 9 -13 0 -22 5 -18 10 3 5 -2 7 -10 3 -9 -3 -21 0 -27 6 -6 6 -11
8 -11 4 0 -4 -13 -1 -30 8 -16 9 -30 13 -30 10 0 -3 -8 -1 -18 4 -11 6 -30 12
-43 14 -13 3 -44 11 -69 18 -57 16 -52 14 -72 23 -9 4 -22 5 -28 1 -5 -3 -10
-1 -10 5 0 7 -6 10 -14 7 -8 -3 -16 -3 -18 1 -4 10 -145 53 -175 55 -13 0 -23
5 -23 10 0 5 -7 7 -15 4 -8 -4 -17 -2 -20 3 -9 15 -37 12 -30 -2 4 -7 0 -5 -8
5 -8 10 -24 20 -36 22 -32 7 -53 13 -90 24 -19 6 -38 8 -44 4 -6 -3 -7 -1 -3
5 5 8 -1 12 -16 12 -13 0 -29 5 -36 12 -7 7 -12 9 -12 6 0 -4 -15 -2 -32 3
-70 22 -233 70 -243 72 -5 2 -16 7 -24 11 -11 7 -12 6 -6 -5 8 -12 6 -12 -8
-1 -9 8 -22 10 -28 6 -7 -4 -9 -3 -6 3 6 10 -55 29 -75 25 -5 -1 -8 98 -8 221
-1 2911 0 2849 -15 2864 -8 8 -19 12 -24 9 -5 -4 -11 -1 -13 4 -2 6 -20 12
-40 13 -20 1 -34 5 -32 8 4 6 -53 23 -68 20 -5 0 -8 5 -8 11 0 9 -4 8 -10 -2
-8 -12 -10 -12 -10 -1 0 8 -3 12 -6 9 -3 -4 -21 0 -40 8 -19 8 -34 11 -34 8 0
-4 -6 -1 -14 5 -7 6 -25 12 -40 13 -14 1 -26 6 -26 10 0 4 -13 8 -29 8 -17 0
-32 4 -35 9 -3 5 -18 11 -33 14 -41 7 -64 14 -95 26 -16 6 -28 8 -28 5 0 -4
-6 -2 -12 3 -7 6 -21 9 -30 8 -10 -2 -18 1 -18 7 0 6 -13 8 -29 6 -17 -2 -28
-1 -26 3 8 13 -22 18 -34 6 -10 -9 -12 -9 -9 3 2 8 -4 15 -12 15 -8 0 -19 3
-25 6 -8 5 -59 19 -75 21 -3 1 -30 9 -60 20 -30 10 -56 18 -57 18 -2 0 -4 0
-5 1 -2 0 -12 3 -23 5 -37 9 -40 10 -50 16 -5 3 -26 9 -45 13 -19 4 -41 12
-47 17 -9 7 -13 6 -13 -3 0 -9 -3 -10 -8 -3 -4 6 -20 15 -37 19 -36 10 -36 10
-55 18 -8 4 -26 8 -40 11 -14 2 -53 13 -87 24 -35 11 -63 18 -63 15 0 -3 -7 0
-15 7 -8 7 -22 10 -30 6 -8 -3 -15 -1 -15 5 0 6 -6 9 -14 6 -8 -3 -16 -2 -18
3 -2 5 -12 11 -23 13 -26 5 -106 26 -125 34 -8 3 -22 7 -30 8 -8 1 -37 10 -64
19 -28 9 -62 18 -77 19 -15 1 -25 6 -21 11 3 5 -2 7 -11 3 -9 -3 -19 -2 -22 4
-4 5 -11 7 -16 4 -5 -4 -9 -2 -9 3 0 5 -6 9 -12 9 -7 0 -55 13 -105 27 -51 15
-98 24 -104 20 -8 -4 -9 -3 -5 4 5 8 -1 12 -16 12 -13 0 -29 5 -36 12 -7 7
-12 9 -12 5 0 -4 -17 0 -37 8 -20 9 -43 13 -49 11 -7 -3 -14 -1 -16 5 -3 8
-38 19 -78 23 -8 0 -17 4 -20 8 -3 4 -17 9 -30 11 -14 2 -32 7 -40 10 -44 18
-124 36 -133 30 -6 -3 -7 -1 -3 5 5 8 -1 12 -14 12 -12 0 -29 4 -38 9 -43 21
-79 20 -128 -6z m111 -13 c-3 -5 -12 -10 -18 -10 -7 0 -6 4 3 10 19 12 23 12
15 0z m2115 -624 c0 -2 -8 -10 -17 -17 -16 -13 -17 -12 -4 4 13 16 21 21 21
13z m-3960 -412 c0 -8 -19 -13 -24 -6 -3 5 1 9 9 9 8 0 15 -2 15 -3z m-165
-844 c3 -5 1 -10 -4 -10 -6 0 -11 5 -11 10 0 6 2 10 4 10 3 0 8 -4 11 -10z
m6240 -2429 c3 -5 2 -12 -3 -15 -5 -3 -9 1 -9 9 0 17 3 19 12 6z m205 -87 c0
-8 -19 -13 -24 -6 -3 5 1 9 9 9 8 0 15 -2 15 -3z m995 -1683 c3 -5 2 -12 -3
-15 -5 -3 -9 1 -9 9 0 17 3 19 12 6z m-75 -1720 c0 -6 -4 -12 -8 -15 -5 -3 -9
1 -9 9 0 8 4 15 9 15 4 0 8 -4 8 -9z m-9360 -441 c0 -5 -2 -10 -4 -10 -3 0 -8
5 -11 10 -3 6 -1 10 4 10 6 0 11 -4 11 -10z m7600 -544 c0 -2 -8 -10 -17 -17
-16 -13 -17 -12 -4 4 13 16 21 21 21 13z"/>
</g>
</svg>
