<svg version="1.1" xmlns="http://www.w3.org/2000/svg" viewBox="0 0 1076 506.1" width="1076" height="506.1">
  <!-- svg-source:excalidraw -->
  
  <defs>
    <style class="style-fonts">
      @font-face {
        font-family: "Virgil";
        src: url("https://excalidraw.com/Virgil.woff2");
      }
      @font-face {
        font-family: "Cascadia";
        src: url("https://excalidraw.com/Cascadia.woff2");
      }
      @font-face {
        font-family: "Assistant";
        src: url("https://excalidraw.com/Assistant-Regular.woff2");
      }
    </style>
    
  </defs>
  <rect x="0" y="0" width="1076" height="506.1" fill="#ffffff"></rect><g stroke-linecap="round" transform="translate(88.5 200.5) rotate(0 124.5 27)"><path d="M13.5 0 C89.09 0, 164.68 0, 235.5 0 M13.5 0 C76.14 0, 138.78 0, 235.5 0 M235.5 0 C244.5 0, 249 4.5, 249 13.5 M235.5 0 C244.5 0, 249 4.5, 249 13.5 M249 13.5 C249 22.1, 249 30.71, 249 40.5 M249 13.5 C249 21.62, 249 29.74, 249 40.5 M249 40.5 C249 49.5, 244.5 54, 235.5 54 M249 40.5 C249 49.5, 244.5 54, 235.5 54 M235.5 54 C176.46 54, 117.42 54, 13.5 54 M235.5 54 C186.22 54, 136.94 54, 13.5 54 M13.5 54 C4.5 54, 0 49.5, 0 40.5 M13.5 54 C4.5 54, 0 49.5, 0 40.5 M0 40.5 C0 30.37, 0 20.23, 0 13.5 M0 40.5 C0 32.01, 0 23.53, 0 13.5 M0 13.5 C0 4.5, 4.5 0, 13.5 0 M0 13.5 C0 4.5, 4.5 0, 13.5 0" stroke="#1e1e1e" stroke-width="4" fill="none"></path></g><g transform="translate(118.078125 205.89999999999998) rotate(0 94.921875 21.599999999999994)"><text x="94.921875" y="0" font-family="Cascadia, Segoe UI Emoji" font-size="36px" fill="#1e1e1e" text-anchor="middle" style="white-space: pre;" direction="ltr" dominant-baseline="text-before-edge">Component</text></g><g stroke-linecap="round" transform="translate(10 10) rotate(0 124.5 27)"><path d="M13.5 0 C81.67 0, 149.84 0, 235.5 0 M13.5 0 C79.08 0, 144.67 0, 235.5 0 M235.5 0 C244.5 0, 249 4.5, 249 13.5 M235.5 0 C244.5 0, 249 4.5, 249 13.5 M249 13.5 C249 21.53, 249 29.55, 249 40.5 M249 13.5 C249 20.92, 249 28.34, 249 40.5 M249 40.5 C249 49.5, 244.5 54, 235.5 54 M249 40.5 C249 49.5, 244.5 54, 235.5 54 M235.5 54 C162.78 54, 90.07 54, 13.5 54 M235.5 54 C176.24 54, 116.98 54, 13.5 54 M13.5 54 C4.5 54, 0 49.5, 0 40.5 M13.5 54 C4.5 54, 0 49.5, 0 40.5 M0 40.5 C0 30.13, 0 19.75, 0 13.5 M0 40.5 C0 31.63, 0 22.75, 0 13.5 M0 13.5 C0 4.5, 4.5 0, 13.5 0 M0 13.5 C0 4.5, 4.5 0, 13.5 0" stroke="#1e1e1e" stroke-width="4" fill="none"></path></g><g transform="translate(71.21875 15.399999999999977) rotate(0 63.28125 21.599999999999994)"><text x="63.28125" y="0" font-family="Cascadia, Segoe UI Emoji" font-size="36px" fill="#1e1e1e" text-anchor="middle" style="white-space: pre;" direction="ltr" dominant-baseline="text-before-edge">Client</text></g><g stroke-linecap="round" transform="translate(817 199) rotate(0 124.5 27)"><path d="M13.5 0 C90.48 0, 167.45 0, 235.5 0 M13.5 0 C93.36 0, 173.21 0, 235.5 0 M235.5 0 C244.5 0, 249 4.5, 249 13.5 M235.5 0 C244.5 0, 249 4.5, 249 13.5 M249 13.5 C249 23.27, 249 33.05, 249 40.5 M249 13.5 C249 23.97, 249 34.43, 249 40.5 M249 40.5 C249 49.5, 244.5 54, 235.5 54 M249 40.5 C249 49.5, 244.5 54, 235.5 54 M235.5 54 C165.55 54, 95.61 54, 13.5 54 M235.5 54 C190.55 54, 145.6 54, 13.5 54 M13.5 54 C4.5 54, 0 49.5, 0 40.5 M13.5 54 C4.5 54, 0 49.5, 0 40.5 M0 40.5 C0 31.89, 0 23.28, 0 13.5 M0 40.5 C0 30.05, 0 19.59, 0 13.5 M0 13.5 C0 4.5, 4.5 0, 13.5 0 M0 13.5 C0 4.5, 4.5 0, 13.5 0" stroke="#1e1e1e" stroke-width="4" fill="none"></path></g><g transform="translate(878.21875 204.39999999999998) rotate(0 63.28125 21.599999999999994)"><text x="63.28125" y="0" font-family="Cascadia, Segoe UI Emoji" font-size="36px" fill="#1e1e1e" text-anchor="middle" style="white-space: pre;" direction="ltr" dominant-baseline="text-before-edge">Server</text></g><g stroke-linecap="round" transform="translate(449 200) rotate(0 124.5 27)"><path d="M13.5 0 C80.38 0, 147.25 0, 235.5 0 M13.5 0 C68.81 0, 124.13 0, 235.5 0 M235.5 0 C244.5 0, 249 4.5, 249 13.5 M235.5 0 C244.5 0, 249 4.5, 249 13.5 M249 13.5 C249 23.09, 249 32.69, 249 40.5 M249 13.5 C249 23.53, 249 33.55, 249 40.5 M249 40.5 C249 49.5, 244.5 54, 235.5 54 M249 40.5 C249 49.5, 244.5 54, 235.5 54 M235.5 54 C156.29 54, 77.09 54, 13.5 54 M235.5 54 C175.12 54, 114.73 54, 13.5 54 M13.5 54 C4.5 54, 0 49.5, 0 40.5 M13.5 54 C4.5 54, 0 49.5, 0 40.5 M0 40.5 C0 32.12, 0 23.74, 0 13.5 M0 40.5 C0 31.24, 0 21.99, 0 13.5 M0 13.5 C0 4.5, 4.5 0, 13.5 0 M0 13.5 C0 4.5, 4.5 0, 13.5 0" stroke="#1e1e1e" stroke-width="4" fill="none"></path></g><g transform="translate(510.21875 205.39999999999998) rotate(0 63.28125 21.599999999999994)"><text x="63.28125" y="0" font-family="Cascadia, Segoe UI Emoji" font-size="36px" fill="#1e1e1e" text-anchor="middle" style="white-space: pre;" direction="ltr" dominant-baseline="text-before-edge">Shared</text></g><g stroke-linecap="round" transform="translate(20 391) rotate(0 124.5 27)"><path d="M13.5 0 C98.73 0, 183.96 0, 235.5 0 M13.5 0 C74.94 0, 136.37 0, 235.5 0 M235.5 0 C244.5 0, 249 4.5, 249 13.5 M235.5 0 C244.5 0, 249 4.5, 249 13.5 M249 13.5 C249 21.89, 249 30.29, 249 40.5 M249 13.5 C249 22.45, 249 31.41, 249 40.5 M249 40.5 C249 49.5, 244.5 54, 235.5 54 M249 40.5 C249 49.5, 244.5 54, 235.5 54 M235.5 54 C150.97 54, 66.44 54, 13.5 54 M235.5 54 C167.22 54, 98.94 54, 13.5 54 M13.5 54 C4.5 54, 0 49.5, 0 40.5 M13.5 54 C4.5 54, 0 49.5, 0 40.5 M0 40.5 C0 33.35, 0 26.2, 0 13.5 M0 40.5 C0 31.19, 0 21.89, 0 13.5 M0 13.5 C0 4.5, 4.5 0, 13.5 0 M0 13.5 C0 4.5, 4.5 0, 13.5 0" stroke="#1e1e1e" stroke-width="4" fill="none"></path></g><g transform="translate(81.21875 396.4) rotate(0 63.28125 21.600000000000023)"><text x="63.28125" y="0" font-family="Cascadia, Segoe UI Emoji" font-size="36px" fill="#1e1e1e" text-anchor="middle" style="white-space: pre;" direction="ltr" dominant-baseline="text-before-edge">Hybrid</text></g><g stroke-linecap="round"><g transform="translate(205.43164163462882 255.5) rotate(0 -23.391677642332468 66.5)"><path d="M0 0 C-7.8 22.17, -38.99 110.83, -46.78 133 M0 0 C-7.8 22.17, -38.99 110.83, -46.78 133" stroke="#1e1e1e" stroke-width="4" fill="none"></path></g><g transform="translate(205.43164163462882 255.5) rotate(0 -23.391677642332468 66.5)"><path d="M-47.11 103 C-46.98 114.61, -46.86 126.23, -46.78 133 M-47.11 103 C-46.98 114.53, -46.86 126.05, -46.78 133" stroke="#1e1e1e" stroke-width="4" fill="none"></path></g><g transform="translate(205.43164163462882 255.5) rotate(0 -23.391677642332468 66.5)"><path d="M-27.75 109.81 C-35.12 118.79, -42.48 127.76, -46.78 133 M-27.75 109.81 C-35.06 118.72, -42.37 127.63, -46.78 133" stroke="#1e1e1e" stroke-width="4" fill="none"></path></g></g><mask></mask><g stroke-linecap="round"><g transform="translate(204.2519007271501 199.5) rotate(0 -27.86026693856485 -67)"><path d="M0 0 C-9.29 -22.33, -46.43 -111.67, -55.72 -134 M0 0 C-9.29 -22.33, -46.43 -111.67, -55.72 -134" stroke="#1e1e1e" stroke-width="4" fill="none"></path></g><g transform="translate(204.2519007271501 199.5) rotate(0 -27.86026693856485 -67)"><path d="M-35.42 -111.91 C-39.81 -116.68, -44.2 -121.46, -55.72 -134 M-35.42 -111.91 C-41.55 -118.58, -47.67 -125.24, -55.72 -134" stroke="#1e1e1e" stroke-width="4" fill="none"></path></g><g transform="translate(204.2519007271501 199.5) rotate(0 -27.86026693856485 -67)"><path d="M-54.37 -104.03 C-54.66 -110.51, -54.95 -116.99, -55.72 -134 M-54.37 -104.03 C-54.78 -113.08, -55.19 -122.12, -55.72 -134" stroke="#1e1e1e" stroke-width="4" fill="none"></path></g></g><mask></mask><g stroke-linecap="round"><g transform="translate(699 228.49038221996727) rotate(0 58.25 0.0024255543870879137)"><path d="M0 0 C19.42 0, 97.08 0, 116.5 0 M0 0 C19.42 0, 97.08 0, 116.5 0" stroke="#1e1e1e" stroke-width="4" fill="none"></path></g><g transform="translate(699 228.49038221996727) rotate(0 58.25 0.0024255543870879137)"><path d="M88.31 10.26 C99.26 6.28, 110.22 2.29, 116.5 0 M88.31 10.26 C95.39 7.69, 102.46 5.11, 116.5 0" stroke="#1e1e1e" stroke-width="4" fill="none"></path></g><g transform="translate(699 228.49038221996727) rotate(0 58.25 0.0024255543870879137)"><path d="M88.31 -10.26 C99.26 -6.27, 110.22 -2.28, 116.5 0 M88.31 -10.26 C95.39 -7.68, 102.46 -5.1, 116.5 0" stroke="#1e1e1e" stroke-width="4" fill="none"></path></g></g><mask></mask><g stroke-linecap="round"><g transform="translate(448.5 227.5) rotate(0 -54.5 0.5)"><path d="M0 0 C-18.17 0.17, -90.83 0.83, -109 1 M0 0 C-18.17 0.17, -90.83 0.83, -109 1" stroke="#1e1e1e" stroke-width="4" fill="none"></path></g><g transform="translate(448.5 227.5) rotate(0 -54.5 0.5)"><path d="M-80.9 -9.52 C-91.62 -5.51, -102.33 -1.5, -109 1 M-80.9 -9.52 C-90.45 -5.94, -100 -2.37, -109 1" stroke="#1e1e1e" stroke-width="4" fill="none"></path></g><g transform="translate(448.5 227.5) rotate(0 -54.5 0.5)"><path d="M-80.72 11 C-91.5 7.19, -102.29 3.37, -109 1 M-80.72 11 C-90.33 7.6, -99.94 4.2, -109 1" stroke="#1e1e1e" stroke-width="4" fill="none"></path></g></g><mask></mask><g transform="translate(216.5 82.30000000000001) rotate(0 90.234375 16.799999999999997)"><text x="0" y="0" font-family="Cascadia, Segoe UI Emoji" font-size="28px" fill="#1e1e1e" text-anchor="start" style="white-space: pre;" direction="ltr" dominant-baseline="text-before-edge">Blazor WASM</text></g><g transform="translate(241.5 268.5) rotate(0 73.828125 16.80000000000001)"><text x="0" y="0" font-family="Cascadia, Segoe UI Emoji" font-size="28px" fill="#1e1e1e" text-anchor="start" style="white-space: pre;" direction="ltr" dominant-baseline="text-before-edge">Razor Lib</text></g><g transform="translate(190.5 462.5) rotate(0 106.640625 16.80000000000001)"><text x="0" y="0" font-family="Cascadia, Segoe UI Emoji" font-size="28px" fill="#1e1e1e" text-anchor="start" style="white-space: pre;" direction="ltr" dominant-baseline="text-before-edge">Blazor Hybrid</text></g><g transform="translate(844.5 270.09999999999997) rotate(0 98.4375 16.80000000000001)"><text x="0" y="0" font-family="Cascadia, Segoe UI Emoji" font-size="28px" fill="#1e1e1e" text-anchor="start" style="white-space: pre;" direction="ltr" dominant-baseline="text-before-edge">ASP.NET Core</text></g><g transform="translate(517.5 268.5) rotate(0 57.421875 16.80000000000001)"><text x="0" y="0" font-family="Cascadia, Segoe UI Emoji" font-size="28px" fill="#1e1e1e" text-anchor="start" style="white-space: pre;" direction="ltr" dominant-baseline="text-before-edge">Library</text></g><g stroke-linecap="round"><g transform="translate(292.5 200.5) rotate(0 289 -27)"><path d="M0 0 C48.33 -9, 193.67 -53.83, 290 -54 C386.33 -54.17, 530 -9.83, 578 -1" stroke="#1e1e1e" stroke-width="4.5" fill="none" stroke-dasharray="8 12"></path></g></g><mask></mask><g transform="translate(547.5 99.5) rotate(0 32.8125 16.799999999999997)"><text x="0" y="0" font-family="Cascadia, Segoe UI Emoji" font-size="28px" fill="#1e1e1e" text-anchor="start" style="white-space: pre;" direction="ltr" dominant-baseline="text-before-edge">HTTP</text></g></svg>